<?xml version="1.0" standalone="no"?>
<!DOCTYPE svg PUBLIC "-//W3C//DTD SVG 20010904//EN"
 "http://www.w3.org/TR/2001/REC-SVG-20010904/DTD/svg10.dtd">
<svg version="1.0" xmlns="http://www.w3.org/2000/svg"
 width="250.000000pt" height="250.000000pt" viewBox="0 0 250.000000 250.000000"
 preserveAspectRatio="xMidYMid meet">
<g transform="translate(0.000000,308.000000) scale(0.100000,-0.100000)"
fill="#000" stroke="none">
<path d="M610 2160 l0 -690 180 0 180 0 0 690 0 690 -180 0 -180 0 0 -690z
m290 0 l0 -620 -115 0 -115 0 0 620 0 620 115 0 115 0 0 -620z"/>
<path d="M1060 2160 l0 -690 180 0 180 0 0 690 0 690 -180 0 -180 0 0 -690z
m300 0 l0 -620 -115 0 -115 0 0 620 0 620 115 0 115 0 0 -620z"/>
<path d="M1500 2160 l0 -690 185 0 185 0 0 690 0 690 -185 0 -185 0 0 -690z
m300 0 l0 -620 -115 0 -115 0 0 620 0 620 115 0 115 0 0 -620z"/>
<path d="M610 1225 l0 -165 85 0 84 0 3 -124 3 -125 105 124 105 125 435 2
435 3 3 163 2 162 -630 0 -630 0 0 -165z m1190 0 l0 -95 -418 0 -419 0 -52
-65 c-29 -36 -57 -65 -62 -65 -5 0 -9 29 -9 65 l0 64 -82 3 -83 3 -3 93 -3 92
566 0 565 0 0 -95z"/>
</g>
</svg>
